<?xml version="1.0" standalone="no"?>
<!DOCTYPE svg PUBLIC "-//W3C//DTD SVG 20010904//EN"
 "http://www.w3.org/TR/2001/REC-SVG-20010904/DTD/svg10.dtd">
<svg version="1.0" xmlns="http://www.w3.org/2000/svg"
 width="1024.000000pt" height="1024.000000pt" viewBox="0 0 1024.000000 1024.000000"
 preserveAspectRatio="xMidYMid meet">

<g transform="translate(0.000000,1024.000000) scale(0.100000,-0.100000)"
fill="#000000" stroke="none">
<path d="M5014 9451 c-2 -2 -4 -361 -4 -796 0 -858 -1 -879 -56 -1063 -51
-169 -177 -400 -273 -500 -84 -87 -175 -143 -295 -185 -50 -17 -86 -21 -196
-21 -122 0 -142 2 -215 28 -43 15 -123 52 -177 82 -111 63 -173 89 -239 99
l-46 7 -27 -56 c-35 -72 -102 -145 -163 -178 -89 -48 -181 -67 -428 -88 -247
-21 -375 -58 -472 -137 -55 -45 -71 -51 -91 -31 -36 36 4 92 112 157 97 58
216 86 457 106 l76 6 22 49 c58 127 210 234 366 255 93 13 88 7 83 101 -2 47
-10 90 -16 96 -8 8 -12 9 -12 1 0 -6 -21 -21 -46 -33 -53 -26 -105 -22 -166
12 -114 64 -130 225 -27 280 108 58 247 -20 322 -180 26 -56 32 -83 37 -166
l5 -100 62 -13 c70 -14 160 -50 248 -98 190 -106 389 -120 563 -40 61 28 155
85 149 91 -2 2 -19 -1 -38 -6 -53 -16 -236 -13 -303 5 -191 50 -324 187 -357
368 -15 83 -3 161 39 251 43 91 100 149 189 193 68 34 84 38 152 37 91 0 150
-23 208 -81 53 -53 77 -106 77 -173 0 -127 -106 -219 -239 -208 -90 8 -144 68
-100 112 15 14 20 14 52 1 90 -38 182 10 183 95 0 69 -63 132 -147 146 -72 11
-149 -19 -214 -84 -75 -76 -103 -147 -97 -248 11 -176 159 -300 370 -312 75
-4 100 -1 172 22 143 45 236 127 306 271 60 124 74 189 75 345 0 118 -3 142
-23 192 -45 110 -156 201 -280 227 -341 71 -1044 -167 -1587 -537 -312 -213
-582 -473 -821 -792 -395 -527 -602 -1067 -670 -1744 -21 -212 -14 -574 16
-796 101 -757 374 -1347 889 -1925 300 -335 629 -583 1061 -799 348 -173 690
-278 1135 -346 220 -34 638 -39 889 -11 311 36 530 85 811 181 1078 372 1963
1326 2250 2425 103 392 147 798 125 1150 -19 310 -74 604 -166 887 -178 548
-446 973 -885 1405 -423 416 -966 724 -1519 863 -161 40 -257 53 -390 53 -222
1 -354 -72 -431 -237 -38 -82 -49 -145 -49 -290 0 -188 36 -285 146 -393 89
-87 235 -153 341 -153 l27 0 -31 33 c-149 153 -145 474 7 624 67 66 120 88
215 88 67 0 88 -5 130 -27 71 -37 133 -102 169 -178 29 -61 31 -72 31 -181 0
-113 -1 -116 -38 -191 -83 -169 -262 -267 -486 -268 -173 0 -318 61 -458 193
l-53 50 0 -55 0 -54 83 -65 c162 -129 278 -183 452 -209 171 -26 323 7 538
115 168 86 238 114 305 123 l47 7 6 60 c12 125 63 226 148 294 65 51 90 59
108 35 20 -28 17 -35 -47 -98 -33 -32 -69 -77 -80 -100 -20 -43 -44 -148 -38
-168 2 -6 44 -19 92 -29 112 -23 184 -58 247 -120 54 -55 56 -60 33 -83 -25
-25 -52 -19 -102 23 -66 55 -101 70 -219 94 -55 12 6 -86 97 -155 67 -50 137
-65 347 -72 269 -9 366 -29 463 -95 66 -45 95 -81 85 -110 -9 -29 -50 -27 -87
4 -89 75 -171 95 -443 105 -244 10 -307 21 -394 73 -69 41 -143 125 -173 194
l-23 55 -45 -5 c-68 -8 -143 -40 -275 -117 -202 -118 -353 -159 -544 -147
-167 11 -311 58 -448 148 -40 26 -73 42 -73 37 0 -23 66 -123 118 -180 186
-200 444 -257 746 -164 171 52 259 48 292 -15 34 -66 9 -125 -100 -233 -71
-70 -77 -80 -62 -91 26 -20 134 -27 209 -15 126 20 178 45 284 135 70 59 121
74 169 51 23 -10 40 -28 47 -47 11 -27 15 -30 42 -25 16 4 78 9 138 13 127 7
178 -7 227 -63 25 -29 30 -43 30 -87 0 -56 -25 -120 -66 -174 -13 -17 -24 -36
-24 -42 0 -6 17 -19 38 -30 21 -11 54 -37 74 -59 82 -91 51 -206 -88 -330 -97
-87 -187 -122 -429 -167 -100 -18 -172 -46 -181 -70 -24 -62 56 -138 251 -238
253 -129 397 -240 491 -377 41 -60 49 -80 49 -117 0 -37 -5 -49 -28 -69 -15
-13 -39 -24 -53 -24 -38 0 -29 -12 38 -50 33 -19 82 -56 108 -82 112 -114 161
-315 109 -453 -45 -122 -121 -166 -290 -173 -160 -6 -273 29 -422 132 -73 50
-72 50 -81 -24 -3 -32 -12 -51 -31 -67 -55 -48 -127 -21 -226 84 -83 88 -123
150 -224 344 -88 170 -142 248 -208 302 -63 51 -127 91 -134 83 -3 -3 9 -50
27 -103 41 -118 45 -196 12 -259 -26 -52 -71 -90 -122 -105 -22 -7 -40 -16
-40 -21 0 -22 89 -156 135 -203 40 -41 83 -68 208 -130 222 -111 301 -188 376
-369 48 -115 57 -158 41 -195 -13 -33 -54 -61 -89 -61 -34 0 -32 -15 9 -72 55
-78 80 -146 80 -222 0 -119 -50 -205 -148 -253 -52 -25 -67 -28 -162 -27 -89
0 -115 4 -173 27 -148 58 -267 160 -376 325 -34 50 -66 92 -70 92 -13 0 -21
-267 -12 -370 5 -52 19 -151 32 -220 28 -159 31 -296 6 -367 -56 -159 -168
-207 -344 -148 -42 14 -79 22 -83 18 -4 -4 -13 -30 -20 -58 -20 -73 -75 -207
-106 -257 -113 -179 -215 -213 -323 -107 -69 69 -149 218 -191 357 -14 45 -27
71 -34 68 -6 -3 -42 -15 -80 -27 -136 -43 -229 -12 -288 98 -53 96 -55 212 -7
458 25 130 38 519 19 545 -7 8 -13 11 -16 5 -2 -6 -32 -53 -66 -105 -103 -159
-217 -253 -370 -307 -91 -33 -248 -38 -310 -10 -98 42 -156 123 -165 228 -8
81 12 149 68 235 27 41 49 77 49 79 0 2 -18 10 -41 16 -43 13 -89 59 -89 89 0
35 42 156 86 245 75 153 130 204 324 301 117 57 179 106 240 189 32 43 80 126
80 138 0 2 -18 9 -40 16 -55 16 -99 56 -126 116 -33 70 -31 142 6 257 16 51
27 94 24 97 -7 7 -75 -28 -117 -62 -63 -49 -111 -118 -156 -223 -105 -244
-162 -346 -253 -449 -83 -94 -170 -128 -227 -89 -26 19 -51 71 -51 109 0 14
-4 25 -9 25 -5 0 -39 -21 -76 -46 -138 -94 -246 -129 -405 -129 -96 1 -110 3
-164 30 -65 33 -117 96 -136 163 -13 49 -13 148 1 214 29 136 103 240 222 310
l68 41 -37 13 c-46 16 -62 31 -73 70 -12 43 6 89 68 173 98 132 248 249 451
351 166 84 264 175 239 222 -18 33 -90 57 -231 78 -147 23 -237 48 -313 88
-64 35 -173 145 -204 206 -47 95 -12 200 82 247 71 36 71 33 25 117 -36 64
-42 86 -43 134 0 69 21 102 86 136 41 22 52 23 154 18 61 -3 126 -8 145 -11
33 -6 36 -4 55 32 15 29 29 40 58 47 48 12 98 -11 182 -85 94 -82 147 -102
286 -107 109 -4 189 7 189 27 0 3 -28 33 -61 66 -118 115 -149 199 -96 261 39
44 106 44 256 -1 270 -80 460 -60 637 69 137 99 218 216 329 471 35 81 66 150
70 153 9 10 -4 -145 -21 -249 -25 -149 -62 -241 -206 -509 -110 -205 -132
-239 -209 -342 -219 -287 -492 -426 -894 -453 -127 -8 -135 -11 -135 -40 0
-25 1 -25 74 -40 11 -2 76 0 145 5 132 9 242 36 376 89 38 16 72 24 74 19 11
-30 -240 -338 -300 -369 -21 -10 -91 -28 -155 -39 -110 -18 -138 -30 -131 -55
2 -6 49 -11 105 -13 56 -1 102 -7 102 -12 0 -15 -221 -250 -320 -341 -164
-151 -204 -168 -409 -178 -114 -5 -136 -9 -145 -24 -9 -14 -7 -21 7 -31 22
-17 154 -30 207 -21 32 5 41 3 46 -9 9 -23 -33 -71 -287 -331 -169 -173 -219
-230 -219 -250 0 -16 6 -25 16 -25 24 0 231 188 558 508 246 239 316 301 316
279 0 -2 -14 -118 -30 -257 -21 -174 -27 -257 -20 -264 22 -22 39 23 65 179
30 184 88 432 109 472 17 32 94 113 107 113 12 0 11 -59 -2 -218 -9 -103 -9
-136 0 -145 18 -18 49 28 56 83 19 132 48 294 67 364 22 83 41 113 153 241 33
39 121 151 195 250 73 99 159 209 190 245 192 222 360 465 476 688 l35 67 -5
-50 c-3 -27 -8 -95 -11 -150 -4 -55 -11 -118 -17 -140 -13 -51 -163 -333 -237
-445 -70 -106 -223 -261 -318 -324 -40 -26 -73 -54 -73 -62 0 -26 32 -28 74
-4 220 124 403 313 533 549 15 28 31 51 34 51 11 0 21 -177 13 -237 -9 -80
-26 -122 -78 -202 -62 -97 -167 -213 -304 -337 -130 -117 -157 -151 -140 -171
6 -7 16 -13 22 -13 35 0 356 287 458 409 l46 55 7 -138 c11 -210 5 -264 -46
-381 -133 -310 -277 -501 -489 -651 -56 -39 -86 -67 -88 -82 -5 -35 33 -28
125 24 202 114 357 279 465 494 l38 75 0 -107 c0 -97 -2 -109 -23 -135 -13
-15 -60 -82 -104 -148 -106 -158 -209 -279 -428 -505 -99 -102 -210 -223 -247
-269 -106 -133 -201 -343 -162 -358 27 -10 42 7 95 107 82 154 131 213 415
500 170 172 291 304 344 375 45 61 85 116 87 123 17 44 23 -17 23 -244 l0
-256 -62 -71 c-34 -40 -101 -112 -149 -162 -197 -204 -306 -358 -278 -392 6
-7 15 -13 19 -13 4 0 40 41 80 91 40 49 142 161 228 247 l156 157 9 -34 c4
-19 6 -73 3 -120 -3 -47 -9 -219 -12 -381 l-5 -295 -28 -30 c-148 -158 -320
-475 -258 -475 8 0 40 39 72 87 81 122 211 283 228 283 4 0 7 -101 7 -224 l0
-224 -63 -51 c-97 -76 -197 -187 -197 -216 0 -38 30 -31 75 16 50 51 159 139
173 139 12 0 16 -27 33 -190 17 -176 38 -312 50 -326 8 -10 16 -11 30 -3 18 9
19 26 20 317 1 169 4 318 8 332 6 22 17 9 96 -119 109 -175 127 -196 148 -188
10 4 17 14 17 24 0 9 -58 133 -130 274 l-130 257 0 149 c0 81 3 158 6 171 l7
23 24 -23 c32 -30 124 -159 194 -270 53 -87 74 -104 86 -72 9 24 -112 259
-221 427 l-96 147 0 180 c0 102 4 180 9 180 5 0 28 -24 51 -52 131 -166 275
-277 293 -225 2 6 -37 55 -87 108 -83 88 -115 133 -229 326 l-37 61 0 217 c0
126 4 214 9 211 5 -3 23 -31 40 -60 47 -85 232 -325 324 -422 212 -225 573
-472 765 -523 48 -13 62 -9 62 19 0 14 -18 29 -62 51 -152 77 -362 222 -516
358 -92 82 -262 270 -349 388 -76 103 -176 267 -230 377 -37 78 -43 98 -43
155 0 84 11 171 20 171 5 0 32 -30 61 -67 160 -206 430 -417 463 -364 12 18
-7 40 -79 96 -155 118 -321 323 -415 510 l-50 100 0 123 c0 67 4 122 8 122 5
0 28 -30 53 -67 68 -104 190 -252 265 -323 136 -126 311 -241 348 -227 31 12
15 33 -82 105 -193 142 -316 279 -462 519 -40 65 -85 137 -101 160 l-29 41 0
284 1 283 27 -31 c15 -16 77 -91 138 -165 227 -275 411 -434 431 -373 2 6 -38
53 -89 105 -132 133 -274 316 -459 589 l-44 65 -5 182 c-3 100 -3 179 0 176 3
-2 25 -38 50 -79 73 -121 213 -311 310 -424 50 -58 107 -134 127 -170 267
-488 373 -639 634 -906 160 -163 167 -175 236 -414 24 -85 47 -158 51 -162 4
-4 13 -3 21 1 12 8 11 32 -7 157 -12 81 -19 151 -16 156 12 20 39 0 180 -135
196 -188 411 -377 428 -377 7 0 19 7 26 15 17 21 4 38 -144 193 -111 115 -140
152 -121 152 3 0 65 -11 138 -24 171 -31 258 -40 277 -26 27 19 -22 46 -117
64 -148 29 -392 94 -438 117 -55 28 -279 213 -414 344 -165 159 -310 339 -427
528 -76 122 -146 263 -142 287 3 16 12 13 78 -25 87 -51 225 -99 331 -116 215
-34 484 31 843 203 275 132 235 143 -97 26 -289 -101 -436 -132 -622 -131
-259 2 -455 84 -685 286 -151 133 -263 285 -369 500 -138 278 -160 474 -131
1127 5 124 10 517 10 873 l0 648 -71 -3 c-39 -2 -72 -5 -75 -7z m1466 -1537
c10 -11 11 -23 4 -42 -8 -22 -16 -27 -43 -27 -25 0 -36 5 -42 21 -17 47 50 86
81 48z m-2907 -85 c14 -23 0 -67 -24 -74 -24 -8 -69 19 -69 41 0 8 5 24 11 35
13 24 66 23 82 -2z m3100 -40 c14 -23 1 -67 -23 -74 -46 -15 -82 49 -48 83 17
17 58 11 71 -9z m561 -365 c21 -8 21 -48 0 -68 -18 -19 -20 -19 -45 -6 -21 12
-25 50 -7 68 13 13 28 15 52 6z m201 -169 c29 -28 31 -42 9 -73 -17 -25 -60
-29 -88 -9 -27 20 -18 78 14 94 34 17 37 17 65 -12z m-4572 -46 c19 -26 10
-58 -19 -71 -19 -9 -28 -8 -44 7 -24 22 -25 42 -3 67 21 24 48 23 66 -3z
m-179 -145 c21 -20 20 -30 -4 -54 -24 -24 -34 -25 -54 -4 -19 18 -20 28 -6 55
13 23 43 25 64 3z m4842 -405 c134 -41 372 -176 477 -270 118 -105 187 -250
187 -392 0 -127 -15 -161 -61 -137 -16 9 -19 22 -19 74 0 147 -45 260 -144
360 -81 82 -260 198 -466 301 -41 20 -77 39 -79 41 -4 3 28 44 34 44 2 0 34
-10 71 -21z m-4882 -85 c3 -9 -5 -25 -22 -41 -33 -30 -311 -246 -350 -270 -60
-39 -169 -123 -199 -154 -18 -19 -39 -51 -47 -71 -17 -41 -22 -162 -6 -156 24
8 174 166 211 222 39 60 44 64 78 62 35 -1 36 -2 33 -36 -4 -41 -40 -115 -78
-159 -14 -18 -64 -61 -110 -97 -46 -36 -84 -70 -84 -74 0 -17 37 -29 126 -40
49 -6 109 -16 134 -21 113 -25 237 -127 287 -235 36 -79 36 -176 -1 -238 -45
-77 -108 -119 -193 -131 -70 -9 -93 -1 -93 34 0 26 4 29 49 35 58 8 135 56
157 98 22 42 20 128 -5 175 -47 93 -158 167 -275 183 -36 6 -95 14 -131 19
-39 6 -78 19 -96 32 l-32 23 -24 -30 c-38 -45 -92 -162 -98 -213 -13 -95 -14
-97 -52 -109 l-35 -11 4 92 c5 109 38 199 108 290 l43 57 -13 60 c-16 76 -8
146 25 218 33 72 97 139 205 212 47 31 137 97 200 145 159 122 268 171 284
129z m5190 -203 c14 -16 15 -25 5 -72 -19 -87 -6 -172 42 -268 37 -75 58 -100
193 -235 197 -197 248 -283 282 -477 36 -206 -18 -419 -128 -502 -141 -108
-330 -54 -368 104 -20 81 23 169 81 169 38 0 47 -22 25 -66 -32 -68 -15 -128
44 -159 86 -45 193 21 237 147 9 24 18 88 20 143 6 118 -18 238 -66 332 -53
105 -50 105 -104 19 -64 -101 -155 -189 -236 -229 -54 -27 -80 -33 -149 -36
-73 -3 -89 0 -135 23 -128 63 -143 212 -30 305 64 53 143 51 143 -5 0 -17 -8
-27 -27 -35 -88 -34 -117 -71 -101 -127 19 -68 124 -93 233 -55 86 30 237 198
269 299 5 18 -5 33 -56 80 -138 130 -197 208 -237 314 -20 52 -25 84 -25 165
-1 149 37 222 88 166z m-5786 -1091 c68 -41 92 -162 51 -247 -34 -70 -136
-121 -153 -77 -10 26 -8 32 39 77 41 41 45 49 45 92 0 43 -4 52 -40 86 -37 35
-50 66 -33 82 13 13 59 7 91 -13z m-221 -161 c9 -9 6 -21 -12 -49 -13 -21 -31
-63 -40 -95 -21 -69 -15 -116 27 -239 32 -94 29 -109 -17 -104 -42 6 -105 167
-105 269 0 133 94 271 147 218z m486 -130 c18 -25 11 -56 -15 -70 -42 -23 -90
45 -56 79 19 19 55 14 71 -9z m6041 -250 c25 -128 -21 -245 -170 -434 -52 -65
-107 -144 -122 -174 -30 -62 -28 -36 -21 -411 4 -201 -5 -252 -70 -385 -84
-170 -253 -284 -424 -285 -57 0 -87 14 -87 40 0 25 22 36 86 43 147 16 282
116 347 254 20 43 44 116 53 163 17 85 17 86 -2 381 -11 161 21 249 145 401
39 49 89 116 111 150 40 62 80 169 80 215 0 34 19 66 36 59 8 -3 14 -1 14 4 0
24 18 7 24 -21z m-6109 -93 c37 -29 75 -94 75 -131 0 -66 -76 -151 -144 -162
-83 -13 -152 28 -126 76 9 19 17 20 63 15 44 -5 56 -3 80 16 57 46 24 125 -53
125 -51 0 -88 -29 -120 -91 -23 -44 -25 -60 -25 -164 1 -163 41 -281 139 -409
82 -108 181 -162 411 -226 148 -40 269 -96 338 -155 48 -43 56 -64 35 -93 -12
-14 -19 -12 -78 28 -73 51 -170 88 -345 135 -66 17 -163 52 -215 77 -169 81
-287 227 -352 433 -19 63 -23 96 -23 210 0 147 10 186 71 266 65 85 192 109
269 50z m5759 -98 c14 -23 -3 -52 -32 -56 -32 -5 -49 34 -26 59 21 23 42 21
58 -3z m276 -410 c28 -131 -43 -241 -177 -274 -23 -6 -21 -1 30 74 61 89 77
132 77 204 0 34 5 50 17 57 26 14 40 -2 53 -61z m-709 -408 c22 -13 25 -52 5
-70 -8 -6 -25 -10 -38 -8 -30 4 -38 56 -12 75 21 16 20 16 45 3z m-4367 -41
c57 -45 15 -137 -52 -113 -58 20 -64 102 -10 124 32 12 32 12 62 -11z m3979
-70 c24 -30 21 -66 -8 -94 -30 -31 -71 -32 -102 -3 -31 29 -30 72 3 105 20 20
31 24 57 19 18 -3 40 -16 50 -27z m-4934 -58 c8 -5 22 -42 33 -82 21 -86 82
-193 135 -239 103 -91 249 -111 413 -56 146 49 223 35 283 -50 61 -87 45 -173
-57 -308 -75 -98 -89 -131 -89 -198 0 -74 31 -123 99 -158 47 -24 56 -25 197
-22 164 3 205 -4 264 -47 56 -40 91 -90 118 -164 23 -61 24 -62 57 -59 45 5
109 27 200 69 76 35 79 36 98 18 43 -39 16 -70 -115 -127 -144 -64 -343 -93
-467 -68 -128 25 -228 95 -228 161 0 44 22 45 77 3 73 -56 126 -76 221 -82
l85 -5 -7 33 c-10 53 -54 118 -98 148 -40 26 -46 27 -187 28 -80 1 -162 4
-181 9 -104 23 -189 98 -216 191 -31 106 -4 194 99 329 82 108 94 166 42 215
-30 28 -83 25 -209 -13 -140 -43 -273 -33 -387 29 -125 68 -238 259 -239 401
0 48 24 66 59 44z m455 -144 c38 -27 -2 -95 -41 -71 -25 16 -29 55 -7 71 10 7
21 13 24 13 3 0 14 -6 24 -13z m4934 -73 c-3 -35 -4 -36 -94 -70 -120 -44
-179 -79 -234 -134 -91 -91 -102 -158 -49 -315 29 -86 33 -114 34 -200 0 -87
-3 -107 -26 -156 -55 -117 -184 -207 -332 -231 -60 -10 -76 -17 -96 -41 -27
-33 -105 -71 -167 -81 -41 -7 -42 -8 -53 -64 -14 -73 -59 -150 -112 -195 -115
-99 -321 -90 -372 15 -16 32 -17 41 -5 64 27 56 79 57 86 2 5 -41 36 -61 90
-61 92 0 184 69 211 156 26 86 27 82 -46 102 -91 25 -216 89 -248 127 -23 27
-24 33 -12 52 20 30 43 31 80 3 48 -36 114 -67 187 -88 36 -11 66 -19 67 -19
2 0 10 17 18 38 50 117 191 167 275 95 27 -22 36 -24 78 -18 65 9 160 56 206
102 90 88 103 202 45 378 -58 174 -39 282 69 393 84 86 274 178 375 181 26 1
28 -1 25 -35z m-5050 -436 c33 -33 -16 -91 -57 -68 -39 20 -21 80 24 80 12 0
26 -5 33 -12z m5087 -52 c8 -24 6 -31 -14 -47 -21 -17 -26 -18 -45 -6 -12 8
-22 24 -24 36 -8 55 64 70 83 17z m-5004 -86 c25 -14 24 -52 -1 -75 -30 -27
-70 -7 -70 34 0 42 33 61 71 41z m4903 -56 c20 -20 20 -33 -1 -56 -29 -32 -73
-16 -73 27 0 42 44 59 74 29z m-4284 -42 c43 -35 4 -94 -50 -77 -28 9 -37 51
-15 75 22 25 37 25 65 2z m3670 0 c31 -25 21 -69 -17 -78 -50 -13 -76 50 -35
84 21 16 26 15 52 -6z m-2990 -196 c31 -38 -9 -89 -54 -68 -45 20 -30 82 20
82 12 0 27 -7 34 -14z m2 -573 c10 -9 18 -26 18 -39 0 -55 -72 -72 -99 -23
-13 24 -13 29 2 53 20 30 52 34 79 9z m1746 -135 c29 -29 -7 -86 -47 -73 -26
8 -38 50 -21 70 15 18 51 20 68 3z m293 -19 c18 -34 -4 -71 -38 -67 -38 4 -57
53 -28 74 27 20 53 17 66 -7z m-1666 -43 c0 -36 -27 -56 -52 -40 -40 25 -20
77 26 72 21 -2 26 -8 26 -32z m253 -38 c34 -34 -6 -90 -48 -68 -20 10 -28 58
-13 73 11 11 48 8 61 -5z m1038 -33 c12 -29 -5 -65 -30 -65 -35 0 -52 25 -38
55 13 28 59 35 68 10z"/>
<path d="M6703 2270 c-22 -9 -60 -57 -51 -65 7 -8 113 49 113 60 0 13 -35 16
-62 5z"/>
<path d="M4300 8845 c-381 -67 -785 -202 -1143 -381 -975 -489 -1719 -1384
-2030 -2445 -181 -615 -214 -1230 -101 -1859 160 -882 555 -1618 1210 -2249
304 -293 600 -500 989 -694 757 -377 1628 -514 2485 -391 794 114 1481 423
2095 943 150 126 398 381 519 532 216 269 427 616 550 901 327 758 433 1622
295 2398 -67 377 -220 825 -396 1160 -598 1135 -1683 1910 -2934 2094 -193 29
-247 19 -302 -55 -26 -37 -27 -115 -1 -159 31 -54 65 -66 259 -95 920 -139
1729 -608 2319 -1347 284 -354 455 -664 600 -1086 197 -574 253 -1174 165
-1762 -93 -618 -287 -1124 -617 -1610 -262 -386 -629 -751 -1012 -1007 -661
-442 -1427 -661 -2235 -640 -573 15 -1106 142 -1601 382 -573 276 -1006 636
-1400 1160 -300 400 -492 800 -619 1288 -203 786 -155 1579 141 2340 179 461
477 903 860 1277 213 208 377 338 608 483 410 255 872 431 1364 518 89 15 178
36 197 45 77 36 106 134 63 208 -48 81 -105 90 -328 51z"/>
<path d="M5882 7824 c-116 -58 -172 -192 -142 -339 16 -78 40 -124 85 -163 46
-41 69 -46 127 -28 155 46 237 160 226 314 -8 106 -64 191 -150 226 -52 22
-86 20 -146 -10z"/>
<path d="M3234 7560 c-56 -22 -27 -100 46 -128 31 -12 84 7 93 33 19 48 -82
117 -139 95z"/>
<path d="M3320 7076 c-90 -25 -173 -85 -207 -150 l-15 -29 43 7 c98 16 207 88
248 165 14 25 2 26 -69 7z"/>
<path d="M4575 6584 c-104 -58 -153 -69 -310 -68 -132 0 -145 2 -227 32 -100
37 -98 37 -98 16 0 -18 119 -75 200 -95 74 -18 230 -16 309 5 35 9 86 28 113
43 53 29 102 79 92 94 -7 12 -11 11 -79 -27z"/>
<path d="M6145 6551 c-29 -10 -51 -25 -53 -34 -5 -25 25 -21 86 9 85 42 63 59
-33 25z"/>
<path d="M5700 6522 c0 -30 48 -43 172 -49 94 -5 108 -3 114 11 10 26 -1 30
-99 38 -51 3 -113 9 -139 13 -44 7 -48 6 -48 -13z"/>
<path d="M5830 6340 c0 -15 48 -42 61 -34 8 5 4 13 -12 25 -26 20 -49 25 -49
9z"/>
<path d="M3153 6314 c-7 -18 73 -104 147 -159 136 -100 399 -180 438 -132 19
22 -1 34 -87 51 -149 30 -278 96 -410 209 -58 50 -78 57 -88 31z"/>
<path d="M6930 6310 c-8 -5 -10 -10 -5 -10 6 0 17 5 25 10 8 5 11 10 5 10 -5
0 -17 -5 -25 -10z"/>
<path d="M4220 6249 c-148 -56 -152 -58 -147 -72 2 -6 17 -11 33 -10 37 3 184
75 209 102 10 12 16 21 14 20 -2 0 -51 -18 -109 -40z"/>
<path d="M6610 6243 c-44 -19 -189 -51 -277 -61 -55 -6 -68 -11 -71 -26 -4
-18 1 -18 62 -12 120 12 366 86 366 110 0 11 -45 4 -80 -11z"/>
<path d="M6040 6191 c0 -13 67 -34 81 -25 9 5 7 11 -6 21 -21 15 -75 18 -75 4z"/>
<path d="M2913 5993 c-20 -52 284 -185 458 -200 57 -5 67 -3 73 12 11 30 -16
45 -115 65 -115 23 -180 45 -286 99 -89 44 -120 50 -130 24z"/>
<path d="M7021 5936 c-74 -30 -80 -51 -9 -30 57 17 72 27 67 42 -2 6 -27 1
-58 -12z"/>
<path d="M7258 5883 c-39 -16 -52 -43 -20 -43 24 1 85 33 90 48 5 16 -24 15
-70 -5z"/>
<path d="M5996 5841 c-16 -25 164 -127 264 -151 70 -16 290 -24 323 -11 39 15
29 35 -19 38 -217 13 -350 41 -471 99 -77 36 -89 39 -97 25z"/>
<path d="M6838 5823 c-20 -5 -23 -18 -8 -28 16 -10 50 5 50 21 0 14 -10 16
-42 7z"/>
<path d="M7063 5779 c-35 -10 -43 -26 -19 -35 17 -6 76 22 76 36 0 12 -14 11
-57 -1z"/>
<path d="M5265 5740 c-6 -10 46 -93 66 -106 6 -3 15 -2 21 4 7 7 -1 26 -27 61
-37 51 -49 59 -60 41z"/>
<path d="M5454 5565 c-9 -22 50 -106 149 -210 82 -86 104 -98 127 -70 10 12
-9 37 -120 152 -73 76 -137 139 -141 141 -5 2 -12 -4 -15 -13z"/>
<path d="M6344 5539 c-7 -13 25 -38 49 -39 9 0 17 6 17 14 0 18 -57 39 -66 25z"/>
<path d="M4275 5450 c-23 -24 -26 -33 -16 -43 10 -10 17 -6 37 16 24 28 32 57
16 57 -5 0 -21 -14 -37 -30z"/>
<path d="M6504 5358 c-9 -15 26 -40 51 -36 28 4 22 21 -14 35 -22 9 -32 10
-37 1z"/>
<path d="M4172 5318 c-29 -46 -10 -64 24 -23 13 17 23 34 21 39 -7 22 -26 15
-45 -16z"/>
<path d="M5910 5218 c0 -21 51 -78 71 -78 26 0 24 5 -12 51 -30 38 -59 51 -59
27z"/>
<path d="M3437 5159 c-52 -12 -81 -29 -70 -40 11 -11 99 13 128 35 20 15 20
15 0 15 -11 -1 -37 -5 -58 -10z"/>
<path d="M4128 5143 c-23 -28 -30 -53 -13 -53 20 0 51 48 38 61 -6 6 -15 3
-25 -8z"/>
<path d="M6690 5145 c0 -18 37 -38 56 -31 21 8 17 21 -11 34 -34 16 -45 15
-45 -3z"/>
<path d="M4616 5055 c-54 -47 -143 -115 -198 -152 -125 -84 -155 -123 -95
-123 82 0 450 305 422 350 -12 19 -30 9 -129 -75z"/>
<path d="M6840 5072 c0 -13 75 -52 99 -52 32 0 25 14 -18 38 -39 22 -81 29
-81 14z"/>
<path d="M7070 4968 c0 -13 79 -48 108 -48 21 0 13 19 -15 34 -46 23 -93 30
-93 14z"/>
<path d="M6210 4911 c0 -5 12 -23 26 -40 43 -51 62 -35 23 20 -19 28 -49 39
-49 20z"/>
<path d="M5790 4682 c0 -13 64 -72 78 -72 18 0 15 7 -15 46 -25 31 -63 47 -63
26z"/>
<path d="M6780 4604 c0 -57 91 -367 112 -380 5 -3 14 -2 20 4 7 7 -1 45 -25
119 -20 59 -48 147 -62 196 -26 86 -45 112 -45 61z"/>
<path d="M3436 4571 c-9 -14 -36 -134 -36 -159 0 -58 36 32 54 136 5 30 -6 44
-18 23z"/>
<path d="M7290 4571 c0 -14 60 -54 68 -46 4 4 -6 18 -23 31 -32 25 -45 30 -45
15z"/>
<path d="M3273 4458 c-6 -35 -9 -65 -7 -67 7 -8 34 69 34 99 0 52 -16 33 -27
-32z"/>
<path d="M6605 4458 c15 -49 48 -118 56 -118 13 0 11 27 -8 87 -12 39 -21 53
-36 53 -14 0 -17 -5 -12 -22z"/>
<path d="M5490 4397 c0 -16 42 -57 58 -57 18 0 15 14 -9 44 -22 28 -49 35 -49
13z"/>
<path d="M7470 4404 c0 -6 55 -54 77 -67 30 -18 25 5 -7 38 -29 30 -70 47 -70
29z"/>
<path d="M3148 4350 c-27 -34 -28 -50 -4 -50 15 0 40 53 34 71 -2 7 -15 -2
-30 -21z"/>
<path d="M3556 4289 c-30 -35 -33 -52 -9 -47 21 4 58 64 44 72 -5 3 -21 -8
-35 -25z"/>
<path d="M5674 4289 c-4 -6 16 -33 44 -62 37 -36 55 -48 68 -43 15 6 9 15 -36
61 -57 58 -64 62 -76 44z"/>
<path d="M7388 4285 c13 -24 134 -145 144 -145 20 0 3 24 -62 87 -74 71 -100
89 -82 58z"/>
<path d="M7130 4248 c0 -19 99 -128 116 -128 24 0 16 14 -42 78 -55 61 -74 74
-74 50z"/>
<path d="M4752 4177 c-29 -30 -43 -67 -24 -67 4 0 22 19 41 41 43 51 29 73
-17 26z"/>
<path d="M2600 4080 c23 -43 140 -104 140 -72 0 5 -13 12 -30 15 -16 4 -47 22
-68 42 -44 39 -58 44 -42 15z"/>
<path d="M5320 3988 c0 -18 38 -78 49 -78 11 0 -24 76 -39 85 -5 3 -10 0 -10
-7z"/>
<path d="M4566 3929 c-27 -32 -31 -44 -18 -53 13 -8 75 60 68 73 -11 18 -23
13 -50 -20z"/>
<path d="M5884 3939 c-7 -13 52 -68 73 -69 26 0 22 20 -9 43 -48 36 -56 39
-64 26z"/>
<path d="M6080 3802 c0 -21 114 -87 136 -78 23 9 10 22 -60 61 -72 40 -76 41
-76 17z"/>
<path d="M4371 3695 c-32 -37 -39 -55 -20 -55 12 0 69 58 69 70 0 23 -21 16
-49 -15z"/>
<path d="M6362 3633 c4 -20 53 -51 64 -40 10 9 -35 57 -53 57 -8 0 -13 -8 -11
-17z"/>
<path d="M3753 3619 c-57 -36 -33 -55 26 -21 31 17 42 42 19 42 -7 0 -28 -10
-45 -21z"/>
<path d="M6524 3549 c-4 -7 1 -18 11 -26 27 -19 37 -16 25 6 -14 27 -27 34
-36 20z"/>
<path d="M4831 3470 c-13 -23 -20 -44 -16 -48 9 -9 67 57 62 71 -8 24 -24 15
-46 -23z"/>
<path d="M4341 3471 c-22 -31 -28 -61 -12 -61 12 0 61 63 61 78 0 22 -29 12
-49 -17z"/>
<path d="M5854 3429 c-7 -12 54 -79 73 -79 18 0 16 7 -8 41 -25 36 -55 53 -65
38z"/>
<path d="M4113 3388 c-31 -34 -46 -69 -36 -79 10 -10 73 69 73 90 0 17 -15 13
-37 -11z"/>
<path d="M5450 3309 c0 -18 60 -89 76 -89 22 0 17 18 -18 61 -30 38 -58 51
-58 28z"/>
<path d="M4496 3273 c-23 -33 -26 -53 -8 -53 10 0 52 64 52 78 0 23 -19 12
-44 -25z"/>
<path d="M4735 3253 c-26 -39 -32 -63 -15 -63 12 0 60 70 60 87 0 24 -19 13
-45 -24z"/>
<path d="M4206 3229 c-39 -56 -20 -75 23 -22 17 20 31 43 31 50 0 25 -25 12
-54 -28z"/>
<path d="M3873 3227 c-27 -30 -36 -47 -24 -47 11 0 55 59 49 66 -3 2 -14 -6
-25 -19z"/>
<path d="M6080 3233 c1 -10 12 -31 25 -48 19 -23 27 -27 36 -18 9 9 6 20 -15
48 -29 38 -46 45 -46 18z"/>
<path d="M6277 3234 c-9 -9 43 -74 59 -74 19 0 18 6 -12 46 -26 34 -35 39 -47
28z"/>
<path d="M4595 3090 c-19 -36 -19 -50 -2 -50 14 0 37 40 37 65 0 25 -19 17
-35 -15z"/>
<path d="M6220 3077 c0 -18 59 -77 76 -77 25 0 15 27 -21 59 -38 33 -55 39
-55 18z"/>
<path d="M5584 3035 c-8 -21 47 -105 69 -105 24 0 22 8 -18 68 -39 56 -43 60
-51 37z"/>
<path d="M6480 3002 c0 -23 35 -56 50 -47 7 4 3 16 -10 36 -24 33 -40 37 -40
11z"/>
<path d="M3825 2869 c-22 -4 -58 -6 -80 -4 -38 4 -39 4 -10 -6 31 -10 109 -5
148 11 20 8 20 9 2 8 -11 0 -38 -4 -60 -9z"/>
<path d="M5575 2760 c-7 -11 25 -70 49 -89 25 -21 29 7 7 43 -28 44 -47 60
-56 46z"/>
<path d="M5677 2423 c-20 -19 12 -103 38 -103 21 0 19 24 -5 70 -22 42 -23 44
-33 33z"/>
<path d="M4484 2364 c-20 -48 -3 -70 20 -26 9 17 16 38 16 47 0 28 -21 16 -36
-21z"/>
</g>
</svg>
